# AST/ASF file generated using VICON BodyLanguage
# -----------------------------------------------
:version 1.10
:name VICON
:units
  mass 1.0
  length 0.45
  angle deg
:documentation
   .ast/.asf automatically generated from VICON data using
   VICON BodyBuilder and BodyLanguage model FoxedUp or BRILLIANT.MOD
:root
   order TX TY TZ RX RY RZ
   axis XYZ
   position 0 0 0  
   orientation 0 0 0 
:bonedata
  begin
     id 1 
     name lhipjoint
     direction 0.547975 -0.797114 0.253638 
     length 2.36201 
     axis 0 0 0  XYZ
  end
  begin
     id 2 
     name lfemur
     direction 0.34202 -0.939693 0  
     length 7.69075  
     axis 0 0 20  XYZ
    dof rx ry rz
    limits (-160.0 20.0)
           (-70.0 70.0)
           (-60.0 70.0)
  end
  begin
     id 3 
     name ltibia
     direction 0.34202 -0.939693 0   
     length 7.91399   
     axis 0 0 20   XYZ
    dof rx
    limits (-10.0 170.0)
  end
  begin
     id 4 
     name lfoot
     direction 0.0705293 -0.193778 0.978507   
     length 2.13618   
     axis -90 7.62852e-016 20   XYZ
    dof rx rz
    limits (-45.0 90.0)
           (-70.0 20.0)
  end
  begin
     id 5 
     name ltoes
     direction 1.53592e-011 -4.21925e-011 1   
     length 1.07518   
     axis -90 7.62852e-016 20   XYZ
    dof rx
    limits (-90.0 20.0)
  end
  begin
     id 6 
     name rhipjoint
     direction -0.57 -0.782963 0.249136   
     length 2.4047  
     axis 0 0 0  XYZ 
  end
  begin
     id 7 
     name rfemur
     direction -0.34202 -0.939693 0   
     length 7.51486   
     axis 0 0 -20   XYZ
    dof rx ry rz
    limits (-160.0 20.0)
           (-70.0 70.0)
           (-70.0 60.0)
  end
  begin
     id 8 
     name rtibia
     direction -0.34202 -0.939693 0   
     length 8.08317   
     axis 0 0 -20   XYZ
    dof rx
    limits (-10.0 170.0)
 end
 begin
     id 9 
     name rfoot
     direction -0.104954 -0.281256 0.953876   
     length 2.30343  
     axis -90 -7.62852e-016 -20   XYZ
    dof rx rz
    limits (-45.0 90.0)
           (-20.0 70.0)
  end
  begin
     id 10 
     name rtoes
     direction -1.53556e-011 -4.21922e-011 1   
     length 1.14803   
     axis -90 -7.62852e-016 -20   XYZ
    dof rx
    limits (-90.0 20.0)
  end
  begin
     id 11 
     name lowerback
     direction -0.0152855 0.99353 -0.11254   
     length 2.05311   
     axis 0 0 0   XYZ
    dof rx ry rz
    limits (-20.0 45.0)
           (-30.0 30.0)
           (-30.0 30.0)
  end
  begin
     id 12 
     name upperback
     direction -0.00157509 0.999443 -0.033332   
     length 2.06353   
     axis 0 0 0   XYZ
    dof rx ry rz
    limits (-20.0 45.0)
           (-30.0 30.0)
           (-30.0 30.0)
  end
  begin
     id 13 
     name thorax
     direction 0.00577788 0.999804 0.0189484   
     length 2.08472   
     axis 0 0 0   XYZ
    dof rx ry rz
    limits (-20.0 45.0)
           (-30.0 30.0)
           (-30.0 30.0)
  end
  begin
     id 14 
     name lowerneck
     direction -1.09301e-005 0.994719 0.10264   
     length 1.76249   
     axis 0 0 0   XYZ
    dof rx ry rz
    limits (-20.0 45.0)
           (-30.0 30.0)
           (-30.0 30.0)
  end
  begin
     id 15 
     name upperneck
     direction 0.0495018 0.988526 -0.142706   
     length 1.77897   
     axis 0 0 0   XYZ
    dof rx ry rz
    limits (-20.0 45.0)
           (-30.0 30.0)
           (-30.0 30.0)
  end
  begin
     id 16
     name head
     direction 0.0142736 0.998114 -0.0597101  
     length 1.78934  
     axis 0 0 0   XYZ
    dof rx ry rz
    limits (-20.0 45.0)
           (-30.0 30.0)
           (-30.0 30.0)
  end
  begin
     id 17 
     name lclavicle
     direction 0.918111 0.396107 -0.0130883  
     length 3.37276  
     axis 0 0 0   XYZ
    dof ry rz
    limits (-20.0 10.0)
           (0.0 20.0)
  end
  begin
     id 18 
     name lhumerus
     direction 1 -4.48975e-011 -3.26108e-027   
     length 5.34298   
     axis 180 -30 -90   XYZ
    dof rx ry rz
    limits (-60.0 90.0)
           (-90.0 90.0)
           (-90.0 90.0)
  end
  begin
     id 19
     name lradius
     direction 1 -4.48964e-011 -8.84413e-028   
     length 3.67262   
     axis 180 -30 -90   XYZ
    dof rx
    limits (-10.0 170.0)
  end
  begin
     id 20
     name lwrist
     direction 1 -4.48991e-011 -1.24264e-027   
     length 1.83631   
     axis -2.17013e-015 90 90   XYZ
    dof ry
    limits (-180.0 0.0)
 end
  begin
     id 21 
     name lhand
     direction 1 -4.48855e-011 -2.48528e-027   
     length 0.599298   
     axis 1.58582e-015 90 90   XYZ
    dof rx rz
    limits (-90.0 90.0)
           (-45.0 45.0)
  end
  begin
     id 22 
     name lfingers
     direction 1 -4.48811e-011 -4.97056e-027   
     length 0.48317   
     axis 3.17164e-015 90 90   XYZ
    dof rx
    limits (0.0 90.0)
  end
  begin
     id 23
     name lthumb
     direction 0.707107 -6.34882e-011 0.707107   
     length 0.693738   
     axis -90 45 2.85299e-015   XYZ
    dof rx rz
    limits (-45.0 45.0)
           (-45.0 45.0)
  end
  begin
     id 24 
     name rclavicle
     direction -0.920511 0.384752 -0.0680135   
     length 3.43787  
     axis 0 0 0   XYZ 
    dof ry rz
    limits (-10.0 20.0)
           (-20.0 0.0)
  end
  begin
     id 25 
     name rhumerus
     direction -0.999976 -0.00330524 0.00603274  
     length 5.5498   
     axis 180 30 90   XYZ
    dof rx ry rz
    limits (-90.0 60.0)
           (-90.0 90.0)
           (-90.0 90.0)
  end
  begin
     id 26 
     name rradius
     direction -1 -4.48967e-011 8.62438e-027   
     length 3.69401   
     axis 180 30 90   XYZ
    dof rx
    limits (-10.0 170.0)
  end
  begin
     id 27 
     name rwrist
     direction -1 -4.4897e-011 9.54866e-027   
     length 1.84701   
     axis -7.69462e-015 -90 -90   XYZ
    dof ry
    limits (-180.0 0.0)
  end
  begin
     id 28
     name rhand
     direction -1 -4.48982e-011 1.90973e-026   
     length 0.638113   
     axis -1.21857e-014 -90 -90   XYZ
    dof rx rz
    limits (-90.0 90.0)
           (-45.0 45.0)
  end
  begin
     id 29
     name rfingers
     direction -1 -4.48936e-011 3.81946e-026   
     length 0.514463   
     axis -2.43714e-014 -90 -90   XYZ
    dof rx
    limits (0.0 90.0)
  end
  begin
     id 30
     name rthumb
     direction -0.707107 -6.34942e-011 0.707107   
     length 0.738669   
     axis -90 -45 -2.85299e-015   XYZ
    dof rx rz
    limits (-45.0 45.0)
           (-45.0 45.0)
  end
:hierarchy
  begin
    root lhipjoint rhipjoint lowerback
    lhipjoint lfemur
    lfemur ltibia
    ltibia lfoot
    lfoot ltoes
    rhipjoint rfemur
    rfemur rtibia
    rtibia rfoot
    rfoot rtoes
    lowerback upperback
    upperback thorax
    thorax lowerneck lclavicle rclavicle
    lowerneck upperneck
    upperneck head
    lclavicle lhumerus
    lhumerus lradius
    lradius lwrist
    lwrist lhand lthumb
    lhand lfingers
    rclavicle rhumerus
    rhumerus rradius
    rradius rwrist
    rwrist rhand rthumb
    rhand rfingers
  end

#!OML:ASF F:\twosubjects\two\Thursday\Session 1\Rory.ASF
:FULLY-SPECIFIED
:DEGREES
53
root 9.89441 15.0339 14.82 -153.02 -15.1457 177.158
lowerback 38.2413 2.15913 4.81949
upperback 7.07615 2.77092 0.997345
thorax -10.6751 0.361433 -2.44008
lowerneck -7.02825 -8.22963 -8.18609
upperneck -22.1086 -11.5243 10.5514
head -4.40901 -6.7454 4.83876
rclavicle -3.18055e-015 1.74931e-014
rhumerus 68.1073 -8.26537 -78.7082
rradius 95.7523
rwrist -21.063
rhand -13.761 27.2199
rfingers 7.12502
rthumb 12.3595 -2.39471
lclavicle -3.18055e-015 1.74931e-014
lhumerus 20.2786 -50.1089 72.2973
lradius 94.5745
lwrist -23.1802
lhand -39.6383 77.5636
lfingers 7.12502
lthumb -12.6191 -107.162
rfemur -33.6186 9.19295 -11.9985
rtibia 70.0744
rfoot -22.9497 -4.46125
rtoes -40.1578
lfemur -80.152 11.2215 -9.84483
ltibia 60.5353
lfoot -2.2081 -11.4809
ltoes -12.0275
54
root 9.96631 14.996 14.8417 -152.805 -15.3208 176.535
lowerback 38.1774 2.2391 4.62229
upperback 7.22062 2.72999 0.625814
thorax -10.4875 0.357568 -2.71751
lowerneck -7.92805 -8.4917 -7.26958
upperneck -22.1828 -11.933 10.4918
head -4.31714 -7.03658 4.62585
rclavicle -3.02153e-014 1.59028e-015
rhumerus 68.6157 -8.76017 -79.279
rradius 95.6796
rwrist -21.8605
rhand -11.6724 25.9101
rfingers 7.12502
rthumb 14.3727 -3.57229
lclavicle -3.02153e-014 1.59028e-015
lhumerus 20.3165 -49.6062 72.3019
lradius 95.9333
lwrist -24.7839
lhand -36.702 76.1861
lfingers 7.12502
lthumb -9.78716 -105.939
rfemur -34.2509 8.33772 -12.3934
rtibia 71.4613
rfoot -22.8298 -4.80756
rtoes -41.1
lfemur -80.5328 11.2124 -10.543
ltibia 60.5137
lfoot -1.99689 -11.6135
ltoes -13.5904
55
root 10.0405 14.954 14.8548 -152.797 -15.5475 176.311
lowerback 38.1938 2.28858 4.38204
upperback 7.19268 2.71001 0.604228
thorax -10.5403 0.356772 -2.60918
lowerneck -7.74518 -8.62722 -7.36921
upperneck -22.5123 -12.0686 10.9493
head -4.39289 -7.14068 4.80504
rclavicle -6.36111e-015 -6.36111e-015
rhumerus 68.8327 -8.80086 -79.4582
rradius 95.5758
rwrist -22.6802
rhand -9.87865 24.4117
rfingers 7.12502
rthumb 16.1005 -4.93948
lclavicle -6.36111e-015 -6.36111e-015
lhumerus 19.6389 -49.0818 72.8958
lradius 96.8146
lwrist -25.2419
lhand -34.7802 74.7427
lfingers 7.12502
lthumb -7.93267 -104.574
rfemur -34.9025 7.93544 -12.3618
rtibia 72.9257
rfoot -22.7215 -4.74054
rtoes -41.3301
lfemur -80.7795 11.5208 -10.9217
ltibia 60.5465
lfoot -1.79205 -12.112
ltoes -13.2528
56
root 10.1363 14.9089 14.8593 -153.25 -15.598 176.412
lowerback 38.6281 2.54099 3.87903
upperback 7.19166 2.82985 0.709741
thorax -10.7194 0.402964 -2.2862
lowerneck -7.48272 -8.70817 -7.69037
upperneck -22.6606 -12.0767 11.5512
head -4.40777 -7.15903 5.05777
rclavicle 6.20208e-014 -1.59028e-014
rhumerus 69.0817 -8.75377 -79.6144
rradius 95.3363
rwrist -23.4581
rhand -8.40571 23.8984
rfingers 7.12502
rthumb 17.5184 -5.33223
lclavicle 6.20208e-014 -1.59028e-014
lhumerus 18.4961 -48.635 73.7645
lradius 97.2734
lwrist -24.6387
lhand -34.6201 74.5089
lfingers 7.12502
lthumb -7.77811 -104.346
rfemur -35.4775 8.23377 -11.9469
rtibia 74.4976
rfoot -22.429 -4.31689
rtoes -40.4024
lfemur -80.5817 12.5722 -11.3126
ltibia 60.6276
lfoot -1.52608 -13.1656
ltoes -10.3944
57
root 10.1981 14.8272 14.8885 -153.33 -16.0106 176.14
lowerback 38.7684 2.31323 3.9991
upperback 7.18633 2.57863 0.571142
thorax -10.7744 0.285729 -2.39632
lowerneck -7.55014 -8.81489 -7.63938
upperneck -22.6676 -12.1809 11.826
head -4.36938 -7.23288 5.12551
rclavicle -3.65764e-014 -2.38542e-015
rhumerus 69.1102 -8.73199 -79.7185
rradius 95.2432
rwrist -24.1916
rhand -6.72644 23.995
rfingers 7.12502
rthumb 19.1339 -5.08377
lclavicle -3.65764e-014 -2.38542e-015
lhumerus 18.5532 -48.3651 73.7968
lradius 97.4915
lwrist -23.3322
lhand -34.825 74.1501
lfingers 7.12502
lthumb -7.97585 -103.98
rfemur -36.0961 7.50852 -12.0208
rtibia 76.0548
rfoot -22.1 -3.84334
rtoes -40.3773
lfemur -80.9034 12.7814 -11.8124
ltibia 60.7421
lfoot -1.64255 -13.3955
ltoes -8.26307
58
root 10.2598 14.7647 14.9146 -153.195 -16.2675 175.702
lowerback 38.706 2.1951 3.69736
upperback 7.17083 2.31178 0.485031
thorax -10.7994 0.177691 -2.22262
lowerneck -7.66984 -8.86332 -7.57724
upperneck -22.6687 -12.2197 12.0551
head -4.33148 -7.2752 5.17668
rclavicle -2.8625e-014 -3.97569e-015
rhumerus 69.2107 -8.51813 -79.6732
rradius 94.9701
rwrist -24.7008
rhand -5.01884 24.0039
rfingers 7.12502
rthumb 20.7753 -4.90392
lclavicle -2.8625e-014 -3.97569e-015
lhumerus 17.8509 -47.8732 73.9976
lradius 98.4953
lwrist -21.9236
lhand -34.3971 72.7838
lfingers 7.12502
lthumb -7.56282 -102.629
rfemur -36.8428 6.7023 -12.364
rtibia 77.4747
rfoot -21.9036 -3.39563
rtoes -40.6902
lfemur -81.3513 12.9829 -12.5045
ltibia 60.8732
lfoot -2.22963 -13.0928
ltoes -5.89345
59
root 10.335 14.7435 14.9081 -153.533 -16.1959 175.281
lowerback 39.0149 2.45492 2.85322
upperback 7.23291 2.26706 0.431495
thorax -10.8776 0.162466 -1.82179
lowerneck -7.71442 -8.83618 -7.44983
upperneck -22.6767 -12.1348 12.3676
head -4.31455 -7.2603 5.2509
rclavicle -9.54166e-015 2.62396e-014
rhumerus 69.3844 -8.40339 -79.7261
rradius 94.6525
rwrist -25.143
rhand -3.7463 23.548
rfingers 7.12502
rthumb 21.9976 -5.22108
lclavicle -9.54166e-015 2.62396e-014
lhumerus 17.5906 -47.5794 73.9998
lradius 99.0113
lwrist -20.7594
lhand -33.23 72.2271
lfingers 7.12502
lthumb -6.4363 -102.109
rfemur -37.0377 6.80125 -12.5866
rtibia 78.6443
rfoot -21.6148 -3.19772
rtoes -40.8224
lfemur -81.0562 13.7436 -13.3582
ltibia 61.0877
lfoot -2.9294 -12.7923
ltoes -4.84623
